<svg id="_x33_0" enable-background="new 0 0 64 64" height="512" viewBox="0 0 64 64" width="512" xmlns="http://www.w3.org/2000/svg" xmlns:xlink="http://www.w3.org/1999/xlink"><linearGradient id="SVGID_1_" gradientUnits="userSpaceOnUse" x1="37" x2="37" y1="63" y2="1"><stop offset="0" stop-color="#9f2fff"/><stop offset="1" stop-color="#0bb1d3"/></linearGradient><path d="m35 25h-6v-2h6zm26 5v2.343c0 1.336-.521 2.592-1.465 3.536l-.535.535v17.457c0 3.931-3.198 7.129-7.129 7.129-2.122 0-4.118-.935-5.478-2.564l-1.393-1.673v2.237h-4.395c-1.261 0-2.491.227-3.671.65-.312 1.896-1.95 3.35-3.934 3.35h-9c-6.065 0-11-4.935-11-11v-4.857c0-8.327 6.055-15.508 14.185-17.004l.395-1.578c-2.367-.876-4.13-2.993-4.5-5.56h-.08c-2.206 0-4-1.794-4-4 0-.815.248-1.573.668-2.206l-.319-1.276c-.232-.927-.35-1.88-.35-2.834.001-6.444 5.242-11.685 11.686-11.685h2.631c6.443 0 11.684 5.241 11.684 11.685 0 .954-.117 1.907-.35 2.834l-.319 1.275c.421.633.669 1.39.669 2.206 0 2.206-1.794 4-4 4h-.08c-.37 2.567-2.133 4.683-4.5 5.56l.4 1.597c5.968 1.293 10.868 5.27 13.349 10.746l.76-4.559-.464-.464c-.944-.945-1.465-2.201-1.465-3.537v-2.343c0-1.302.839-2.402 2-2.816v-3.184c0-1.654 1.346-3 3-3s3 1.346 3 3v3h1c1.654 0 3 1.346 3 3zm-8-6v3.184c.374.133.711.335 1 .596.289-.26.626-.463 1-.596v-3.184c0-.552-.448-1-1-1s-1 .448-1 1zm-20 31v-8.442c-1.695-1.017-3.62-1.558-5.605-1.558h-2.395v10h2.382l.211-.422c.487-.974 1.465-1.578 2.553-1.578 1.276 0 2.36.842 2.724 2zm-5.147-22.955c-.55.089-1.087.212-1.615.359l1.189 2.973 2.727-2.181zm2.649 11.34c1.185.294 2.325.752 3.389 1.373l-1.646-5.758h-.491zm2.742-8.109-1.244-.995-1.244.995.862 1.724h.764zm3.328.101 1.169-2.921c-.525-.159-1.061-.295-1.607-.404l-2.288 1.144zm.428-20.377c-1.103 0-2 .897-2 2s.897 2 2 2 2-.897 2-2-.897-2-2-2zm6 4c0-1.103-.897-2-2-2v4c1.103 0 2-.897 2-2zm-22-6.315c0 .79.098 1.581.289 2.35l.08.321c.5-.225 1.049-.356 1.631-.356v-1c0-2.481 1.822-4.531 4.195-4.919-.122-.548-.195-1.111-.195-1.686v-.395h2v.395c0 1.923.955 3.707 2.555 4.773l-1.109 1.664c-1.09-.726-1.956-1.701-2.548-2.822-1.446.05-2.628 1.123-2.85 2.52.58-.327 1.239-.53 1.952-.53 1.859 0 3.411 1.279 3.858 3h2.284c.447-1.721 1.999-3 3.858-3 .238 0 .467.03.694.07-.385-.266-.83-.454-1.322-.515l-.528-.066c-2.761-.345-4.844-2.705-4.844-5.489h2c0 1.777 1.329 3.283 3.093 3.504l.528.066c2.316.289 4.084 2.152 4.33 4.43h.049c.582 0 1.131.131 1.631.356l.08-.321c.191-.769.289-1.56.289-2.35 0-5.34-4.345-9.685-9.685-9.685h-2.631c-5.339 0-9.684 4.345-9.684 9.685zm4 4.315c0 1.103.897 2 2 2s2-.897 2-2-.897-2-2-2-2 .897-2 2zm-2 4v-4c-1.103 0-2 .897-2 2s.897 2 2 2zm7 6h4c2.757 0 5-2.243 5-5v-1.556c-.591.344-1.268.556-2 .556-1.859 0-3.411-1.279-3.858-3h-2.284c-.447 1.721-1.999 3-3.858 3-.732 0-1.409-.212-2-.556v1.556c0 2.757 2.243 5 5 5zm-.463 1.977-.372 1.487 2.835 1.418 2.835-1.418-.372-1.487c-.153.01-.307.023-.463.023h-4c-.156 0-.31-.013-.463-.023zm-5.537 32.023h3v-4h-3c-2.757 0-5-2.243-5-5v-11h2v11c0 1.302.839 2.402 2 2.816v-11.816h4.395c.376 0 .749.022 1.121.054l1.416-4.955-.773-1.545-2.587 2.069-2.226-5.564c-5.523 2.357-9.346 7.86-9.346 14.084v4.857c0 4.963 4.037 9 9 9zm11-2c0-1.103-.897-2-2-2h-2v-1.146c0-.47-.384-.854-.854-.854-.325 0-.618.181-.764.473l-.382.763v4.764h4c1.103 0 2-.897 2-2zm8-14h-2.395c-1.985 0-3.911.541-5.605 1.558v8.998c.79.461 1.407 1.176 1.733 2.042 1.251-.395 2.548-.598 3.872-.598h2.395zm14 8.871v-16.871h-4.153l-2.861 17.164-1.973-.328 1.473-8.839-.291-.989c-1.458-4.955-4.984-8.87-9.575-10.864l-2.192 5.479-2.587-2.069-.773 1.545 1.673 5.857c1.537-.626 3.183-.956 4.864-.956h4.395v10.637l2.931 3.517c.977 1.173 2.414 1.846 3.94 1.846 2.828 0 5.129-2.301 5.129-5.129zm1.929-20.871h-2.929c-1.654 0-3-1.346-3-3 0-.552-.448-1-1-1s-1 .448-1 1v2.343c0 .802.312 1.556.879 2.122l.535.535h5.172l.535-.535c.408-.408.685-.914.808-1.465zm.071-3c0-.552-.448-1-1-1h-2c-.552 0-1 .448-1 1s.448 1 1 1h3z" fill="url(#SVGID_1_)"/></svg>