<svg id="Layer_5" enable-background="new 0 0 64 64" height="60px" viewBox="0 0 64 64" width="60px" xmlns="http://www.w3.org/2000/svg"><g><path d="m56 3h1v-2h-1-44c-2.757 0-5 2.243-5 5v52c0 2.757 2.243 5 5 5h40c2.757 0 5-2.243 5-5v-49h-1c-1.654 0-3-1.346-3-3s1.346-3 3-3zm-44 0h40.026c-.442.584-.773 1.257-.924 2h-36.102v2h24.382l1 2h-28.382c-1.654 0-3-1.346-3-3s1.346-3 3-3zm43 8v33.021c-.841-.632-1.879-1.021-3.022-1.021-2.745 0-4.978 2.232-4.978 5.022 0 2.485 1.832 4.552 4.233 4.919-1.722 1.156-4.077 2.059-7.233 2.059-2.795 0-6.257-1.484-9.606-2.919-3.534-1.515-7.189-3.081-10.394-3.081-4.017 0-7.156 2.389-9 4.26v-42.26h26v2h-24v14h24v2.618l5-2.5 5 2.5v-18.618zm0 36.978c0 .57-.153 1.112-.443 1.564-.53.827-1.357 1.882-2.563 2.843l-.016-1.385c-1.642 0-2.978-1.336-2.978-3.022 0-1.642 1.336-2.978 3.022-2.978 1.642 0 2.978 1.336 2.978 2.978zm-11.618-40.978 1 2h-1.764l-1-2zm-2.382 18h-22v-10h22zm8 1.382-2-1v-10.382h-2v10.382l-2 1v-15.382h2v2h2v-2h2zm-2.382-17.382-1-2h1.764l1 2zm-37.618 49v-48.002c.836.629 1.875 1.002 3 1.002h1v50h-1c-1.654 0-3-1.346-3-3zm43 3h-37v-4.678c.78-1.048 4.255-5.322 9-5.322 2.795 0 6.257 1.484 9.606 2.919 3.534 1.515 7.189 3.081 10.394 3.081 5.68 0 9.146-2.657 11-4.752v5.752c0 1.654-1.346 3-3 3zm-1.382-52-1-2h1.483c.152.743.482 1.416.924 2z"/><path d="m11 5h2v2h-2z"/><path d="m25 57h2v2h-2z"/><path d="m21 57h2v2h-2z"/><path d="m17 57h2v2h-2z"/><path d="m19 31h2v2h-2z"/><path d="m23 31h18v2h-18z"/><path d="m19 35h32v2h-32z"/><path d="m49 39h2v2h-2z"/><path d="m41 39h2v2h-2z"/><path d="m45 39h2v2h-2z"/><path d="m19 39h20v2h-20z"/><path d="m19 43h26v2h-26z"/></g></svg>