<svg height="60px" viewBox="0 0 504 504.03051" width="60px" xmlns="http://www.w3.org/2000/svg"><path d="m478.453125 101.144531h-16.785156v-16.785156c-.015625-13.902344-11.28125-25.167969-25.179688-25.179687h-51.703125l-8.167968-22.820313c-2.511719-6.515625-8.789063-10.796875-15.773438-10.753906-6.980469.042969-13.207031 4.398437-15.636719 10.941406l-8.097656 22.632813h-51.703125c-13.261719.035156-25.71875 6.359374-33.574219 17.042968-7.855469-10.683594-20.3125-17.007812-33.574219-17.042968h-26.0625c-20.871093-46.214844-72.886718-69.65625-121.328124-54.675782-48.445313 14.976563-78.152344 63.6875-69.292969 113.613282-.976563 2.628906-1.496094 5.40625-1.5468752 8.207031v327.34375c.015625 13.902343 11.2812502 25.167969 25.1796872 25.183593h184.65625v8.390626c.011719 9.265624 7.523438 16.777343 16.789063 16.789062h50.359375c9.265625-.011719 16.773437-7.523438 16.785156-16.789062v-8.390626h21.457031c5.949219 10.351563 16.964844 16.746094 28.90625 16.785157h33.574219c11.9375-.039063 22.953125-6.433594 28.902344-16.785157h63.425781c24.753906 0 33.570312-13.011718 33.570312-25.183593v-327.34375c-.011718-13.898438-11.277343-25.164063-25.179687-25.179688zm-41.964844-25.179687c4.632813.003906 8.390625 3.757812 8.390625 8.394531v293.769531h-33.570312v-243.410156c-.007813-.929688-.167969-1.855469-.480469-2.734375l-.011719-.09375-20.019531-55.925781zm-377.707031 318.949218h159.476562c13.898438.015626 25.164063 11.28125 25.179688 25.183594v8.390625h-184.65625zm201.445312 25.183594c0-14.550781 11.777344-25.183594 16.785157-25.183594h18.332031c-.992188 2.691407-1.515625 5.527344-1.546875 8.394532v16.789062c.03125 2.863282.554687 5.703125 1.546875 8.390625h-35.117188zm86.347657-337.777344c9.367187 2.707032 19.304687 2.71875 28.675781.027344l13.945312 38.957032-8.808593-2.9375c-3.589844-1.214844-7.542969.140624-9.636719 3.300781l-9.804688 14.707031-9.804687-14.707031c-2.09375-3.152344-6.046875-4.507813-9.636719-3.300781l-8.832031 2.941406zm14.371093 237.054688c-4.636718 0-8.394531 3.757812-8.394531 8.394531v50.359375h-25.179687v-237.359375l13.363281-4.449219 11.816406 17.726563v123.359375c0 4.636719 3.757813 8.394531 8.394531 8.394531 4.636719 0 8.394532-3.757812 8.394532-8.394531v-123.359375l11.820312-17.734375 13.359375 4.449219v237.367187h-25.179687v-50.359375c0-4.636719-3.757813-8.394531-8.394532-8.394531zm-50.359374 100.722656v-16.789062c.003906-4.632813 3.757812-8.390625 8.394531-8.394532h83.933593c4.632813.003907 8.390626 3.761719 8.394532 8.394532v16.789062c-.003906 4.632813-3.761719 8.390625-8.394532 8.390625h-83.933593c-4.636719 0-8.390625-3.757812-8.394531-8.390625zm115.960937-25.183594h18.332031v32.566407c-2.71875.8125-5.558594 1.152343-8.390625 1.007812h-9.941406c.996094-2.6875 1.519531-5.527343 1.546875-8.390625v-16.789062c-.027344-2.867188-.550781-5.703125-1.546875-8.394532zm-56.957031-328.386718c-5.707032 1.398437-11.667969 1.390625-17.371094-.019532l8.664062-24.304687zm-84.183594 9.4375h45.691406l-20.019531 55.925781-.015625.097656c-.308594.875-.472656 1.800781-.476562 2.730469v243.410156h-33.574219c-6.222657.367188-12.140625 2.828125-16.785157 6.984375v-283.96875c.011719-13.898437 11.277344-25.164062 25.179688-25.179687zm-67.148438 0c13.898438.015625 25.164063 11.28125 25.179688 25.179687v285.59375c-7.222656-5.554687-16.070312-8.578125-25.179688-8.609375h-159.476562v-185.539062c35.292969 16.398437 76.882812 10.925781 106.726562-14.046875 29.847657-24.976563 42.570313-64.949219 32.648438-102.578125zm-117.507812-58.753906c46.355469 0 83.933594 37.578124 83.933594 83.933593s-37.578125 83.933594-83.933594 83.933594-83.933594-37.578125-83.933594-83.933594c.050782-46.332031 37.601563-83.878906 83.933594-83.933593zm184.65625 444.851562c-2.835938 0-5.476562 1.429688-7.027344 3.800781-1.550781 2.375-1.800781 5.367188-.664062 7.960938-.453125 1.636719-.691406 3.328125-.703125 5.027343v8.390626h-50.359375v-8.390626c-.015625-9.265624-7.523438-16.777343-16.789063-16.789062h-184.65625c-4.632812-.003906-8.390625-3.757812-8.390625-8.394531v-296.964844c6.757813 10.136719 15.285156 18.972656 25.179688 26.085937v245.699219c.011718 9.265625 7.519531 16.777344 16.785156 16.789063h184.65625v16.785156c0 4.636719 3.757812 8.394531 8.394531 8.394531s8.394531-3.757812 8.394531-8.394531v-16.785156h50.359376v16.785156zm92.328125 16.789062h-33.574219c-9.265625-.015624-16.777344-7.523437-16.789062-16.789062v-16.785156h67.148437v16.785156c-.011719 9.265625-7.519531 16.773438-16.785156 16.789062zm109.113281-25.183593c0 7.574219-11.738281 8.394531-16.785156 8.394531h-58.753906v-16.785156h25.179687c21.90625 0 25.179688-10.515625 25.179688-16.789063v-310.554687h16.785156c4.636719 0 8.390625 3.757812 8.394531 8.390625zm0 0"/><path d="m55.765625 90.808594 3.015625-2.515625v54.820312c.011719 9.265625 7.523438 16.773438 16.789062 16.785157h50.359376c9.265624-.011719 16.773437-7.519532 16.785156-16.785157v-54.816406l3.019531 2.515625c3.566406 2.917969 8.816406 2.417969 11.765625-1.121094 2.953125-3.542968 2.5-8.796875-1.011719-11.78125l-50.363281-41.964844c-3.117188-2.589843-7.636719-2.589843-10.753906 0l-50.359375 41.964844c-3.511719 2.984375-3.964844 8.238282-1.015625 11.78125 2.949218 3.539063 8.203125 4.039063 11.769531 1.121094zm44.984375-37.492188 25.179688 20.984375v68.8125h-16.785157v-16.789062c0-4.632813-3.757812-8.390625-8.394531-8.390625s-8.394531 3.757812-8.394531 8.390625v16.789062h-16.785157v-68.808593zm0 0"/><path d="m75.570312 243.832031c0 4.636719 3.757813 8.394531 8.390626 8.394531h134.296874c4.636719 0 8.394532-3.757812 8.394532-8.394531 0-4.632812-3.757813-8.390625-8.394532-8.390625h-134.296874c-4.632813 0-8.390626 3.757813-8.390626 8.390625zm0 0"/><path d="m218.257812 269.015625h-134.296874c-4.632813 0-8.390626 3.757813-8.390626 8.390625 0 4.636719 3.757813 8.394531 8.390626 8.394531h134.296874c4.636719 0 8.394532-3.757812 8.394532-8.394531 0-4.632812-3.757813-8.390625-8.394532-8.390625zm0 0"/><path d="m218.257812 302.585938h-134.296874c-4.632813 0-8.390626 3.761718-8.390626 8.394531 0 4.636719 3.757813 8.394531 8.390626 8.394531h134.296874c4.636719 0 8.394532-3.757812 8.394532-8.394531 0-4.632813-3.757813-8.394531-8.394532-8.394531zm0 0"/><path d="m218.257812 336.160156h-134.296874c-4.632813 0-8.390626 3.757813-8.390626 8.394532 0 4.636718 3.757813 8.394531 8.390626 8.394531h134.296874c4.636719 0 8.394532-3.757813 8.394532-8.394531 0-4.636719-3.757813-8.394532-8.394532-8.394532zm0 0"/></svg>