<svg height="60px" viewBox="-21 -67 681.33335 681" width="60px" xmlns="http://www.w3.org/2000/svg"><path d="m615.640625 167.878906c-13.632813-21.15625-36.230469-34.292968-61.128906-35.785156 7.308593-10.0625 11.640625-22.433594 11.640625-35.792969v-38.199219c0-.558593-.027344-1.113281-.042969-1.675781.007813-.222656.039063-.4375.035156-.664062-.5-32.351563-27.234375-58.671875-59.585937-58.671875h-4.015625c-32.867188 0-59.605469 26.738281-59.605469 59.605468v1.046876c0 .121093-.003906.238281-.003906.359374v38.199219c0 13.433594 4.375 25.867188 11.757812 35.953125-18.363281 1.578125-35.417968 9.472656-48.601562 22.65625l-36.972656 36.972656c-4.011719 4.015626-10.355469 4.6875-15.121094 1.609376l-49.148438-33.761719c-.066406-.050781-.136718-.097657-.210937-.140625-11.699219-7.695313-26.128907-9.882813-39.589844-6l-.265625.078125c-12.054688 3.472656-20.46875 14.664062-20.46875 27.207031 0 15.898438 7.851562 30.707031 21.003906 39.625l79.3125 54.820312c.035156.023438.066406.042969.101563.066407 3.207031 2.167969 6.667969 3.742187 10.246093 4.792969 1.089844.574218 2.273438 1.003906 3.539063 1.234374 11.742187 2.171876 23.832031-1.457031 32.429687-9.6875l28.835938-25.738281.222656 54.007813-.011718 55.011718h-150.65625v-40.46875c0-28.011718-8.019532-55.257812-23.191407-78.800781-13.621093-21.136719-36.1875-34.269531-61.0625-35.785156 7.441407-10.109375 11.847657-22.585937 11.847657-36.074219v-38.199218c0-.558594-.023438-1.113282-.039063-1.671876.003906-.222656.035156-.441406.027344-.671874-.496094-32.347657-27.226563-58.671876-59.582031-58.671876h-4.011719c-32.867188 0-59.605469 26.738282-59.605469 59.601563v1.054687c0 .117188-.011719.238282-.011719.359376v38.199218c0 13.464844 4.398438 25.917969 11.8125 36.023438-25.339843 1.164062-48.410156 14.363281-62.246093 35.835937-15.167969 23.539063-23.1914068 50.789063-23.1914068 78.796875v52.976563c0 6.910156 5.6015628 12.515625 12.5117188 12.515625h407.394531l-.035156 152.09375c0 .417968.019531.832031.066406 1.242187.03125.328125.085938.644531.140625.964844.015625.082031.023438.167969.039063.253906.074219.371094.167969.734375.277343 1.09375.003907.027344.007813.058594.019532.085938.113281.367187.242187.722656.382812 1.066406.011719.03125.019532.058594.03125.082031.136719.339844.292969.660156.457032.976563.023437.042969.042968.09375.070312.136719.15625.292968.332031.574218.503906.851562.046875.0625.078125.136719.125.199219.179688.269531.375.523437.574219.777343.054687.066407.101563.140626.15625.207032.519531.636718 1.101563 1.214844 1.730469 1.730468.078125.0625.164062.121094.246094.1875.238281.1875.484374.375.738281.542969.070312.050781.15625.09375.234375.144531.265625.167969.535156.339844.816406.492188.058594.027344.117188.050781.175781.082031.300781.160157.613281.304688.929688.441407.046875.015624.089843.027343.128906.046874.335937.132813.675781.257813 1.023437.363282.046876.015625.097657.023437.140626.039062.347656.097656.6875.191406 1.042968.257813.105469.023437.214844.035156.320313.050781.296875.050781.589843.101562.894531.136719.367188.03125.742188.050781 1.125.050781.039062 0 .082031.011719.121094.011719h139.175781c6.910156 0 12.515625-5.605469 12.515625-12.515625v-139l8.78125-5.496094c28.738281-17.992188 45.894531-48.976562 45.894531-82.886719v-58.058593c0-28.007813-8.019531-55.257813-23.191406-78.800782zm-267.363281 79.539063-68.78125-47.535157c-.039063-.027343-.070313-.050781-.105469-.074218-6.296875-4.261719-13.972656-15.015625-8.601563-20.390625 5.378907-5.378907 14.433594-2.613281 20.003907 1.015625l49.15625 33.769531c.070312.042969.136719.09375.210937.136719 2.574219 1.695312 5.300782 3.007812 8.117188 3.988281zm-249.535156-122.101563c.195312-19.679687 16.257812-35.628906 35.980468-35.628906h1.191406c16 0 29.582032 10.492188 34.257813 24.953125-14.238281-1.675781-27.8125 3.539063-42.097656 9.03125-2.582031.996094-5.21875 2.007813-7.921875 3.007813-3.003906 1.105468-10.035156 1.21875-21.410156-1.15625zm-.007813 25.675782c5.621094.960937 10.710937 1.457031 15.265625 1.457031 5.746094 0 10.664062-.765625 14.804688-2.289063 2.816406-1.039062 5.566406-2.097656 8.25-3.128906 13.324218-5.128906 23.851562-9.171875 32.453124-7.148438.789063.183594 1.589844.316407 2.402344.394532v23.59375c0 19.164062-15.054687 34.871094-33.957031 35.925781h-5.261719c-18.90625-1.054687-33.957031-16.761719-33.957031-35.925781zm145.578125 204.011718h-24.921875v-80.414062c0-6.910156-5.601563-12.511719-12.511719-12.511719h-25.066406c-6.910156 0-12.507812 5.601563-12.507812 12.511719s5.597656 12.507812 12.507812 12.507812h12.558594v66.863282h-118.097656v-66.945313l10.535156-.070313c6.910156-.046874 12.476562-5.683593 12.425781-12.597656-.042969-6.910156-5.722656-12.460937-12.59375-12.425781l-22.964844.15625c-6.878906.042969-12.429687 5.632813-12.429687 12.511719v80.414062h-26.136719v-40.46875c0-23.1875 6.636719-45.75 19.199219-65.242187 9.871094-15.324219 26.648437-24.464844 44.871094-24.464844h43.140624c.796876.027344 1.597657.058594 2.40625.058594h1.1875c.8125 0 1.609376-.03125 2.410157-.058594h41.914062c18.226563 0 35.003907 9.140625 44.875 24.464844 12.5625 19.492187 19.203125 42.054687 19.203125 65.242187v40.46875zm223.652344-297.261718c.195312-19.679688 16.257812-35.628907 35.980468-35.628907h1.195313c16 0 29.578125 10.492188 34.253906 24.957031-14.234375-1.671874-27.8125 3.539063-42.097656 9.03125-2.578125.992188-5.21875 2.007813-7.921875 3.003907-3.003906 1.109375-10.035156 1.21875-21.410156-1.148438zm-.007813 25.683593c5.617188.957031 10.710938 1.457031 15.261719 1.457031 5.746094 0 10.664062-.765624 14.804688-2.296874 2.824218-1.039063 5.570312-2.09375 8.261718-3.128907 13.320313-5.121093 23.839844-9.167969 32.441406-7.148437.789063.183594 1.59375.316406 2.402344.398437v23.59375c0 18.171875-13.542968 33.234375-31.0625 35.648438h-11.046875c-17.519531-2.414063-31.0625-17.476563-31.0625-35.648438zm-22.964843 379.050781.039062-150.023437h114.097656v207.160156h-43.578125v-165.042969c0-6.910156-5.605469-12.511718-12.515625-12.511718s-12.511718 5.601562-12.511718 12.511718v165.042969h-45.539063zm139.164062-99.121093v-50.902344h29.242188c-2.132813 20.375-12.65625 38.738281-29.242188 50.902344zm29.378906-75.921875h-29.378906v-58.828125c0-6.910157-5.605469-12.511719-12.515625-12.511719-3.558594 0-6.765625 1.492188-9.039063 3.875-2.3125 2.269531-3.742187 5.425781-3.742187 8.917969v58.546875h-113.828125l.015625-49.8125c.078125-8.613282-4.964844-16.367188-12.882813-19.773438-7.847656-3.382812-16.859374-1.777344-23.050781 4.074219l-34.742187 31.015625c-.136719.117188-.265625.238281-.394532.363281-.21875.214844-.449218.410157-.679687.605469v-35.511719c4.921875-1.835937 9.4375-4.726562 13.242187-8.53125l36.972657-36.976562c10.082031-10.082031 23.488281-15.632813 37.75-15.632813h28.761719v45.503906c0 6.910157 5.597656 12.511719 12.507812 12.511719s12.515625-5.601562 12.515625-12.511719v-45.503906h34.410156c18.226563 0 35 9.144532 44.875 24.464844 12.5625 19.492188 19.203125 42.054688 19.203125 65.242188zm0 0"/><path d="m510.269531 240.914062-.316406-.242187c-5.5-4.1875-13.347656-3.121094-17.53125 2.382813-4.1875 5.496093-3.121094 13.347656 2.375 17.53125l.324219.242187c2.261718 1.722656 4.925781 2.554687 7.5625 2.554687 3.777344 0 7.503906-1.699218 9.964844-4.933593 4.191406-5.5 3.125-13.347657-2.378907-17.535157zm0 0"/><path d="m141.808594 264.6875-.324219-.246094c-5.5-4.179687-13.347656-3.117187-17.53125 2.382813-4.183594 5.496093-3.121094 13.347656 2.378906 17.535156l.320313.242187c2.265625 1.722657 4.925781 2.554688 7.566406 2.554688 3.773438 0 7.507812-1.699219 9.96875-4.9375 4.183594-5.496094 3.117188-13.347656-2.378906-17.53125zm0 0"/></svg>