<svg id="Layer_5" enable-background="new 0 0 64 64" height="512" viewBox="0 0 64 64" width="512" xmlns="http://www.w3.org/2000/svg" xmlns:xlink="http://www.w3.org/1999/xlink"><linearGradient id="SVGID_1_" gradientUnits="userSpaceOnUse" x1="32" x2="32" y1="63" y2="1"><stop offset="0" stop-color="#9f2fff"/><stop offset="1" stop-color="#0bb1d3"/></linearGradient><path d="m12 1c-2.757 0-5 2.243-5 5v52c0 2.757 2.243 5 5 5h40c2.757 0 5-2.243 5-5v-49h-1c-1.654 0-3-1.346-3-3s1.346-3 3-3h1v-2h-1zm-3 57v-48.002c.836.629 1.875 1.002 3 1.002h1v50h-1c-1.654 0-3-1.346-3-3zm38.382-51 1 2h-1.764l-1-2zm-2.382 8v10.382l-2 1v-15.382h2v2h2v-2h2v15.382l-2-1v-10.382zm-4 10h-22v-10h22zm2.382-18 1 2h-1.764l-1-2zm-2.382 6h-24v14h24v2.618l5-2.5 5 2.5v-18.618h4v33.021c-.841-.632-1.879-1.021-3.022-1.021-2.745 0-4.978 2.232-4.978 5.022 0 2.485 1.832 4.552 4.233 4.919-1.722 1.156-4.077 2.059-7.233 2.059-2.795 0-6.257-1.484-9.606-2.919-3.534-1.515-7.189-3.081-10.394-3.081-4.017 0-7.156 2.389-9 4.26v-42.26h26zm14 34.978c0 .57-.153 1.112-.443 1.564-.53.827-1.357 1.882-2.563 2.843l-.016-1.385c-1.642 0-2.978-1.336-2.978-3.022 0-1.642 1.336-2.978 3.022-2.978 1.642 0 2.978 1.336 2.978 2.978zm-3 13.022h-37v-4.678c.78-1.048 4.255-5.322 9-5.322 2.795 0 6.257 1.484 9.606 2.919 3.534 1.515 7.189 3.081 10.394 3.081 5.68 0 9.146-2.657 11-4.752v5.752c0 1.654-1.346 3-3 3zm-1.382-52-1-2h1.483c.152.743.482 1.416.924 2zm.483-4h-36.101v2h24.382l1 2h-28.382c-1.654 0-3-1.346-3-3s1.346-3 3-3h40.026c-.443.584-.773 1.257-.925 2zm-40.101 0h2v2h-2zm10 52h2v2h-2zm4 0h2v2h-2zm-8 0h2v2h-2zm4-24h-2v-2h2zm20 0h-18v-2h18zm10 4h-32v-2h32zm-6 2h2v2h-2zm4 0h2v2h-2zm-8 2v-2h2v2zm-2 0h-20v-2h20zm6 4h-26v-2h26z" fill="url(#SVGID_1_)"/></svg>