<svg id="Layer_1" enable-background="new 0 0 512.001 512.001" height="512" viewBox="0 0 512.001 512.001" width="512" xmlns="http://www.w3.org/2000/svg"><g><path d="m356.001 36.001h-100v80h100l-30-40z" fill="#ffbdbc"/><path d="m402.001 176.001h-292l-100 100h186l60-60 60 60h186z" fill="#ffbdbc"/><path d="m316.001 276.001-60-60-60 60h-160v200h190v-70h60v70h190v-200z" fill="#bfdbff"/><g fill="#fff"><circle cx="256.001" cy="316.001" r="30"/><path d="m316.001 276.001-60-60-60 60h-60l120-120 120 120z"/><path d="m76.001 316.001h40v40h-40z"/><path d="m156.001 316.001h40v40h-40z"/><path d="m76.001 396.001h40v40h-40z"/><path d="m156.001 396.001h40v40h-40z"/><path d="m316.001 316.001h40v40h-40z"/><path d="m396.001 316.001h40v40h-40z"/><path d="m316.001 396.001h40v40h-40z"/><path d="m396.001 396.001h40v40h-40z"/></g><g fill="#8481e2"><path d="m509.072 268.929-100-100c-1.876-1.875-4.419-2.929-7.071-2.929h-121.858l-14.143-14.143v-25.857h90c3.788 0 7.25-2.14 8.944-5.528s1.328-7.441-.944-10.472l-25.5-34 25.5-34c2.272-3.03 2.639-7.084.944-10.472-1.694-3.389-5.156-5.528-8.944-5.528h-100c-5.522 0-10 4.478-10 10v115.857l-14.143 14.143h-121.856c-2.652 0-5.195 1.054-7.071 2.929l-100 100c-2.859 2.86-3.716 7.161-2.168 10.898 1.548 3.736 5.194 6.173 9.239 6.173h16v190c0 5.522 4.478 10 10 10h190c5.522 0 10-4.478 10-10v-60h40v60c0 5.522 4.478 10 10 10h190c5.522 0 10-4.478 10-10v-190h16c4.045 0 7.691-2.437 9.239-6.173 1.548-3.737.691-8.037-2.168-10.898zm-243.071-222.928h70l-18 24c-2.667 3.556-2.667 8.444 0 12l18 24h-70zm131.857 140 80 80h-97.715l-80-80zm-141.857-15.858 95.857 95.857h-31.715l-57.071-57.071c-3.906-3.904-10.236-3.904-14.143 0l-57.071 57.071h-31.715zm-141.858 15.858h97.715l-80 80h-97.715zm351.858 280h-170v-60c0-5.522-4.478-10-10-10h-60c-5.522 0-10 4.478-10 10v60h-170v-180h150c2.652 0 5.195-1.054 7.071-2.929l52.929-52.929 52.929 52.929c1.876 1.875 4.419 2.929 7.071 2.929h150z"/><path d="m256.001 276.001c-22.056 0-40 17.944-40 40s17.944 40 40 40 40-17.944 40-40-17.945-40-40-40zm0 60c-11.028 0-20-8.972-20-20s8.972-20 20-20 20 8.972 20 20-8.972 20-20 20z"/></g></g></svg>