<?xml version="1.0" encoding="iso-8859-1"?>
<!-- Generator: Adobe Illustrator 19.0.0, SVG Export Plug-In . SVG Version: 6.00 Build 0)  -->
<svg version="1.1" id="Capa_1" xmlns="http://www.w3.org/2000/svg" xmlns:xlink="http://www.w3.org/1999/xlink" x="0px" y="0px"
	 viewBox="0 0 496 496" style="enable-background:new 0 0 496 496;" xml:space="preserve">
<g>
	<g>
		<path d="M456,288h-24V48h-32V0H32v48H0v416h176.808c3.712,18.232,19.88,32,39.192,32s35.48-13.768,39.192-32H432v-96h24
			c22.056,0,40-17.944,40-40C496,305.944,478.056,288,456,288z M224,16h160v64h16V64h16v224h-16V96h-16v192h-89.888l-42.536,21.264
			C244.44,312.84,240,320.016,240,328s4.44,15.16,11.576,18.736L294.112,368H384v48H224V16z M288,308.944v38.112l-29.264-14.632
			C257.048,331.576,256,329.88,256,328s1.048-3.576,2.736-4.424L288,308.944z M48,16h160v400H48V16z M416,448H240v8
			c0,13.232-10.768,24-24,24s-24-10.768-24-24v-8H16V64h16v368h368v-64h16V448z M432,320h-32v16h32v16H304v-16h80v-16h-80v-16h128
			V320z M456,352h-8v-48h8c13.232,0,24,10.768,24,24S469.232,352,456,352z"/>
	</g>
</g>
<g>
	<g>
		<rect x="240" y="384" width="128" height="16"/>
	</g>
</g>
<g>
	<g>
		<path d="M128,32c-35.288,0-64,28.712-64,64c0,35.288,28.712,64,64,64s64-28.712,64-64C192,60.712,163.288,32,128,32z M128,144
			c-26.472,0-48-21.528-48-48s21.528-48,48-48s48,21.528,48,48S154.472,144,128,144z"/>
	</g>
</g>
<g>
	<g>
		<rect x="96" y="176" width="96" height="16"/>
	</g>
</g>
<g>
	<g>
		<rect x="64" y="208" width="128" height="16"/>
	</g>
</g>
<g>
	<g>
		<rect x="64" y="240" width="128" height="16"/>
	</g>
</g>
<g>
	<g>
		<rect x="64" y="272" width="128" height="16"/>
	</g>
</g>
<g>
	<g>
		<rect x="240" y="144" width="128" height="16"/>
	</g>
</g>
<g>
	<g>
		<rect x="240" y="176" width="128" height="16"/>
	</g>
</g>
<g>
	<g>
		<rect x="240" y="208" width="128" height="16"/>
	</g>
</g>
<g>
	<g>
		<rect x="240" y="240" width="72" height="16"/>
	</g>
</g>
<g>
	<g>
		<rect x="64" y="304" width="128" height="16"/>
	</g>
</g>
<g>
	<g>
		<rect x="112" y="336" width="80" height="16"/>
	</g>
</g>
<g>
	<g>
		<rect x="64" y="336" width="32" height="16"/>
	</g>
</g>
<g>
	<g>
		<rect x="64" y="368" width="128" height="16"/>
	</g>
</g>
<g>
	<g>
		<path d="M240,32v96h128V32H240z M352,112h-96V48h96V112z"/>
	</g>
</g>
<g>
	<g>
		<rect x="64" y="176" width="16" height="16"/>
	</g>
</g>
<g>
</g>
<g>
</g>
<g>
</g>
<g>
</g>
<g>
</g>
<g>
</g>
<g>
</g>
<g>
</g>
<g>
</g>
<g>
</g>
<g>
</g>
<g>
</g>
<g>
</g>
<g>
</g>
<g>
</g>
</svg>
