<svg id="Capa_1" enable-background="new 0 0 482 482" height="512" viewBox="0 0 482 482" width="512" xmlns="http://www.w3.org/2000/svg"><g><path d="m0 140.5v336h241l23-164-23-172-113-28z" fill="#f5f8f9"/><path d="m482 140.5-115-33-126 33v336h241z" fill="#e3eaee"/><path d="m0 50.5v90h241l19-43-19-47z" fill="#ff3f5c"/><path d="m241 50.5h241v90h-241z" fill="#ca2e43"/><path d="m105.5 5.5h30v90h-30z" fill="#c2bce0"/><path d="m346.5 5.5h30v90h-30z" fill="#a299d1"/><path d="m118 293.5v30h123l13-15-13-15z" fill="#fc6"/><path d="m262.606 184.894-21.212 21.212 87.393 87.394h-87.787v30h85.787l-85.393 85.394 21.212 21.212 122.607-122.606z" fill="#ffa64d"/></g></svg>